<svg width="21" height="18" viewBox="0 0 21 18" fill="none" xmlns="http://www.w3.org/2000/svg">
<path fill-rule="evenodd" clip-rule="evenodd" d="M5.26249 0H15.7209C18.6186 0 20.9833 2.02857 21 4.51429V13.4857C21 15.9714 18.6352 18 15.7375 18H5.26249C2.36479 18 0 15.9714 0 13.5V4.51429C0 2.02857 2.36479 0 5.26249 0ZM4.33667 9.58134L4.38011 9.60322V9.59775C4.44527 9.63056 4.46699 9.70712 4.44527 9.77274C4.42355 9.8493 4.41269 9.92586 4.41269 10.0024L4.42355 10.3852C4.42898 10.4399 4.4507 10.4946 4.49414 10.5383C4.5213 10.5711 4.52672 10.6313 4.49414 10.6696L4.43984 10.7352C4.43984 10.7625 4.4507 10.8063 4.49414 10.8172C4.54845 10.8336 4.60275 10.8719 4.65705 10.9266L4.70049 10.9813C4.73307 11.0469 4.71135 11.118 4.65705 11.1563L4.61904 11.1836C4.51586 11.2438 4.46699 11.3695 4.49957 11.4953C4.53216 11.6375 4.55931 11.7797 4.57017 11.9219L4.58646 12.1187C4.58646 12.2062 4.6299 12.2883 4.69506 12.3539C4.76022 12.414 4.78737 12.4961 4.78737 12.589L4.77651 12.8296C4.77651 12.939 4.81995 13.0429 4.89598 13.114C4.97743 13.1851 5.06974 13.2398 5.19463 13.2781C5.29781 13.3054 5.37383 13.4038 5.38469 13.5132V13.5569C5.39012 13.6554 5.41727 13.7483 5.46071 13.8304C5.50415 13.9179 5.55845 13.989 5.66706 14.0655C5.7648 14.1311 5.8734 14.1749 5.98201 14.1968L6.13405 14.2296C6.25351 14.2514 6.35126 14.3225 6.41642 14.4155C6.49787 14.5194 6.58475 14.6014 6.71508 14.6561C6.8454 14.7163 6.97573 14.7381 7.11691 14.7272H7.19293C7.20675 14.7246 7.22056 14.7221 7.23447 14.7196C7.308 14.7065 7.38397 14.6929 7.4753 14.6561C7.5296 14.6342 7.58933 14.6561 7.62191 14.7108C7.65992 14.7655 7.71423 14.8092 7.76853 14.8202L7.89342 14.8475C7.90569 14.8496 7.91642 14.8524 7.92676 14.8551C7.9439 14.8597 7.95999 14.8639 7.9803 14.8639L8.30611 14.9186C8.40929 14.9295 8.50703 14.9733 8.58848 15.028L8.65907 15.0827L8.77854 15.1702L8.85456 15.2358L9.07176 15.4436C9.13693 15.5256 9.23467 15.5639 9.34327 15.5803H9.51704C9.59306 15.5912 9.65279 15.635 9.67994 15.6897C9.71795 15.7498 9.77768 15.7936 9.84285 15.8154L9.98946 15.8482C10.0872 15.8756 10.1849 15.8865 10.2935 15.8756L10.3641 15.8647C10.4184 15.8592 10.4727 15.8701 10.527 15.8975C10.5705 15.9248 10.6248 15.9521 10.6791 15.9521L10.766 15.9795C10.88 16.0068 10.9995 16.0068 11.1081 15.9795L11.271 15.9248C11.3416 15.9029 11.4067 15.8592 11.461 15.7826C11.4936 15.7279 11.5696 15.7061 11.6239 15.7279C11.6945 15.7608 11.7651 15.7826 11.8411 15.7826L11.928 15.7936C12.0421 15.799 12.167 15.7881 12.2756 15.7608C12.3842 15.7279 12.4656 15.6623 12.5199 15.5639L12.5905 15.4436L12.6231 15.378L12.6557 15.3233C12.6937 15.2686 12.748 15.2358 12.8023 15.2358H12.8783C12.9923 15.2358 13.1064 15.2248 13.2367 15.1811C13.3453 15.1537 13.4376 15.0827 13.5082 14.9897L13.5299 14.9569C13.5635 14.913 13.5929 14.8649 13.6232 14.8152C13.642 14.7845 13.6612 14.7531 13.682 14.7217L13.7091 14.6889C13.7308 14.6342 13.7526 14.5741 13.7634 14.5085C13.7688 14.4483 13.7797 14.3772 13.796 14.3225C13.8123 14.2569 13.8612 14.2132 13.9589 14.2132C14.0404 14.2132 14.1327 14.1694 14.2033 14.1147L14.2413 14.0819C14.3119 14.0108 14.377 13.9288 14.4422 13.8194C14.4748 13.7647 14.5454 13.7319 14.616 13.7647C14.6703 13.7866 14.7246 13.7429 14.7354 13.6773C14.7571 13.6007 14.7897 13.5351 14.844 13.4804C14.8929 13.4257 14.9309 13.3655 14.9689 13.2781C15.0015 13.2124 15.0721 13.1577 15.1481 13.1577H15.4413C15.5228 13.1577 15.5988 13.1031 15.6205 13.0046C15.6423 12.9281 15.6857 12.8515 15.74 12.7859C15.7889 12.7312 15.854 12.6765 15.9301 12.6218C16.0061 12.589 16.0767 12.5289 16.131 12.4578L16.2124 12.3484C16.245 12.3156 16.2667 12.2609 16.2667 12.2062C16.2667 12.157 16.2939 12.1078 16.3319 12.0859L16.4133 12.0312C16.4839 11.993 16.5382 11.9383 16.5762 11.8672C16.6088 11.8016 16.6414 11.7305 16.6631 11.6484V11.6047C16.6903 11.5063 16.6903 11.3969 16.6631 11.2875L16.6468 11.211C16.6305 11.1617 16.6523 11.1071 16.6848 11.0742C16.7016 11.0546 16.724 11.0364 16.7493 11.0159C16.7732 10.9965 16.7996 10.9751 16.826 10.9485C16.8803 10.8993 16.9238 10.8391 16.9509 10.7735L16.9618 10.7352C16.9998 10.6477 17.0107 10.5383 16.9889 10.429C16.9781 10.336 16.9509 10.2485 16.9075 10.1719C16.8695 10.0899 16.864 9.99695 16.8912 9.89852C16.9238 9.80555 16.9346 9.70165 16.9346 9.60322V9.55947C16.9346 9.43369 16.9183 9.30792 16.864 9.18761C16.8206 9.06184 16.7446 8.96887 16.636 8.89778L16.5274 8.81575C16.4948 8.79388 16.4676 8.7556 16.4568 8.71732C16.4405 8.67357 16.4405 8.62982 16.4405 8.58608V8.4603C16.4405 8.35093 16.4351 8.24156 16.4133 8.10485C16.4025 8.01735 16.359 7.92986 16.283 7.87517C16.2287 7.82049 16.1744 7.74393 16.1744 7.65643L16.1581 7.53065C16.1581 7.46503 16.1798 7.41035 16.2124 7.3666C16.2559 7.32285 16.2667 7.25723 16.2667 7.20254V7.09317C16.2613 7.01115 16.2233 6.94006 16.1418 6.88537C16.093 6.84709 16.0658 6.776 16.0767 6.72132L16.0875 6.61195L16.1255 6.35493C16.1364 6.26196 16.0984 6.17993 16.0278 6.12525L15.9735 6.08697C15.9355 6.0651 15.9192 6.02135 15.9192 5.96666C15.9246 5.92291 15.9192 5.86823 15.8975 5.81355L15.7563 5.49637L15.702 5.387C15.664 5.31591 15.5988 5.26123 15.5228 5.26123L15.4142 5.25029C15.3273 5.25029 15.2621 5.17373 15.2621 5.08623C15.2676 4.97686 15.235 4.87296 15.1698 4.7964L15.1155 4.72531C15.0612 4.67063 15.0015 4.61594 14.9309 4.56126C14.8657 4.52298 14.7843 4.50657 14.7028 4.50657H14.3662C14.2901 4.50657 14.2141 4.46829 14.1815 4.3972C14.1272 4.32064 14.0729 4.24955 14.0186 4.19487L13.9915 4.16753C13.9263 4.0855 13.8177 4.03081 13.7091 4.01988L13.4756 3.9816C13.3507 3.96519 13.2258 3.9816 13.1064 4.01988C12.9923 4.06362 12.8674 4.05269 12.748 3.998C12.6231 3.94332 12.4982 3.92144 12.3679 3.92144H12.0475C11.9715 3.92691 11.8954 3.90504 11.8411 3.85035L11.7868 3.79567C11.7108 3.74098 11.6457 3.65895 11.5914 3.57693C11.5371 3.50037 11.4556 3.44021 11.3633 3.41287L11.2764 3.38553C11.1895 3.35819 11.1244 3.27616 11.1135 3.16679C11.1081 3.15038 11.1026 3.13945 11.0864 3.12851C11.0646 3.10664 11.0266 3.1121 11.0103 3.13945C10.956 3.20507 10.8746 3.23788 10.7931 3.21601L10.7117 3.19413C10.5922 3.16679 10.4727 3.15038 10.3533 3.15038H10.299C10.2067 3.15038 10.1252 3.12851 10.0275 3.07382C9.96231 3.04101 9.89172 3.01367 9.82113 3.00273C9.75053 2.9918 9.68537 3.01367 9.63107 3.06836L9.39757 3.31444L9.3487 3.34178C9.32155 3.38006 9.26725 3.391 9.21295 3.36912L9.15865 3.34178C9.07176 3.3035 8.98488 3.27616 8.87628 3.27616L8.65907 3.25975C8.59391 3.25429 8.51789 3.26522 8.46359 3.28163C8.39843 3.29803 8.34412 3.33631 8.28982 3.391L8.18122 3.52224C8.12692 3.58786 8.06176 3.64255 7.99116 3.6863L7.8717 3.75739L7.45901 3.99253C7.33412 4.07456 7.2418 4.20034 7.20379 4.37533C7.17664 4.51751 7.08976 4.62688 6.94857 4.70344C6.83997 4.75812 6.74766 4.82921 6.66621 4.92218C6.59018 5.00421 6.53588 5.12451 6.51416 5.27763C6.49244 5.40341 6.3947 5.48543 6.27524 5.48543H6.10147C6.00916 5.48543 5.91141 5.49637 5.79195 5.54012C5.73765 5.56746 5.66163 5.53465 5.62905 5.46903L5.60733 5.43075C5.58561 5.387 5.53673 5.35966 5.46614 5.35966C5.43899 5.3706 5.42813 5.40888 5.43899 5.44169L5.50415 5.58387C5.53673 5.66043 5.51501 5.75886 5.46071 5.81355L5.26523 6.03228L5.19463 6.12525C5.15662 6.169 5.10232 6.17993 5.01544 6.14712C4.98829 6.15259 4.97743 6.169 4.98829 6.22368C4.99372 6.25649 4.98829 6.30024 4.96114 6.33305C4.93942 6.3768 4.91227 6.40414 4.88512 6.43149L4.75479 6.52992C4.64619 6.62835 4.5756 6.76506 4.5756 6.91271L4.56474 7.09864C4.55931 7.16427 4.5213 7.21895 4.46699 7.23536C4.40183 7.25723 4.3421 7.29004 4.30409 7.34473L4.24979 7.41582C4.17377 7.50331 4.14118 7.62362 4.14118 7.74393L4.15747 7.80955C4.15747 7.91892 4.17919 8.02829 4.21178 8.13766L4.23893 8.22515C4.24979 8.2689 4.24436 8.31812 4.21178 8.3564C4.20454 8.3666 4.19692 8.3768 4.18922 8.3871C4.16803 8.41547 4.14626 8.44462 4.13032 8.47671L4.08688 8.55873C4.03801 8.6517 4.01086 8.75013 4.01086 8.8595L4 8.93059C4 9.0673 4.03258 9.19855 4.1086 9.34073C4.1629 9.44463 4.23893 9.52666 4.33667 9.58134ZM9.75596 8.74466C9.78854 8.77201 9.79397 8.8431 9.75596 8.88138L9.76139 8.88684L9.72338 8.93059C9.67451 8.99075 9.58763 8.99621 9.53333 8.95247L9.52247 8.94153C9.45187 8.87044 9.36499 8.82122 9.27268 8.79388L9.12064 8.75013C9.02289 8.73373 8.93601 8.67357 8.88171 8.58608C8.82741 8.49858 8.74052 8.4439 8.64278 8.4439H8.6102C8.5016 8.43296 8.40386 8.36187 8.36041 8.24156L8.33326 8.15406C8.28982 8.04469 8.2138 7.94626 8.11606 7.88064C8.01831 7.82595 7.95858 7.71658 7.94229 7.60721V7.50878C7.92057 7.38847 7.86627 7.29004 7.77939 7.22442C7.68708 7.1588 7.64906 7.04943 7.67078 6.94006L7.69794 6.83069C7.71966 6.75413 7.76853 6.69397 7.84455 6.66663C7.89885 6.64476 7.95315 6.57914 7.95315 6.50258V6.21275C7.95858 6.14165 7.94229 6.07056 7.91514 6.00494C7.88799 5.94479 7.89885 5.8737 7.94229 5.81901L7.96944 5.77527C8.03461 5.69871 8.06719 5.58934 8.07805 5.47997V5.42528C8.08891 5.29404 8.14321 5.1792 8.25181 5.10811C8.36584 5.03702 8.45816 4.93858 8.51246 4.81828L8.5559 4.74719C8.6102 4.62688 8.70794 4.53938 8.82741 4.5011L8.99031 4.44642L9.04461 4.43001L9.2401 4.37533C9.30526 4.35345 9.35956 4.28783 9.35956 4.21127C9.36499 4.13471 9.41929 4.08003 9.48989 4.08003L9.95145 4.02534C9.9945 4.02534 10.0381 4.02415 10.0822 4.02295C10.1715 4.02051 10.2624 4.01802 10.3533 4.02534L10.5922 4.04175C10.6791 4.04722 10.7334 4.12925 10.7334 4.22221C10.7334 4.23862 10.728 4.26049 10.7171 4.2769L10.6791 4.34799C10.6488 4.4167 10.6079 4.48275 10.5674 4.54799C10.55 4.57621 10.5326 4.60428 10.5162 4.63235L10.489 4.65969C10.4402 4.73078 10.413 4.80734 10.413 4.89484C10.413 4.96593 10.3696 5.03702 10.3044 5.05889L10.1578 5.11358C10.0383 5.15186 9.93516 5.22295 9.85371 5.33232L9.83199 5.35419C9.76139 5.44169 9.72338 5.55106 9.70709 5.66043L9.69623 5.73699C9.68537 5.79167 9.70166 5.84636 9.72881 5.90104C9.75596 5.94479 9.75053 5.99947 9.71795 6.03228L9.68537 6.0651L9.63107 6.13072L9.55505 6.21275C9.48989 6.2893 9.44102 6.3768 9.40843 6.47523L9.37042 6.5846C9.3487 6.65023 9.35956 6.70491 9.39214 6.7596C9.42472 6.81428 9.43559 6.88537 9.41386 6.94006V6.95099C9.39757 7.03302 9.36499 7.09864 9.32155 7.16973C9.27811 7.22442 9.26182 7.29551 9.27811 7.36113V7.39394C9.28897 7.44863 9.31069 7.50331 9.33241 7.54706C9.36499 7.60175 9.38671 7.65643 9.38671 7.71112V7.73299C9.38671 7.79861 9.36499 7.87517 9.33241 7.92986L9.29983 7.98454C9.27268 8.03923 9.27268 8.09391 9.29983 8.1486C9.33241 8.21422 9.37042 8.2689 9.42472 8.31265L9.43559 8.32359C9.48989 8.37827 9.53876 8.43843 9.57677 8.50952L9.63107 8.59701C9.66365 8.6517 9.70166 8.70091 9.75596 8.74466ZM10.5053 8.34546C10.4836 8.39468 10.4293 8.41108 10.375 8.37827L10.3641 8.36734L10.3533 8.3564C10.3098 8.33453 10.2773 8.27984 10.2773 8.22515C10.2718 8.17047 10.2827 8.11578 10.299 8.0611C10.3153 7.99548 10.3098 7.94079 10.2827 7.88611L10.2284 7.7658C10.2067 7.71112 10.2067 7.65643 10.2392 7.60175C10.2664 7.54706 10.2935 7.48691 10.2935 7.42128L10.3098 7.24629C10.3153 7.19161 10.3044 7.13692 10.2718 7.08224C10.2447 7.04396 10.2664 6.99474 10.299 6.97287H10.3098L10.3424 6.95646C10.413 6.92912 10.4673 6.8635 10.489 6.78147L10.5108 6.68851C10.527 6.60648 10.5379 6.52445 10.527 6.43149C10.5162 6.36586 10.5705 6.30571 10.6248 6.29477H10.6356H10.7171C10.7986 6.29477 10.8637 6.25103 10.918 6.1854C10.9723 6.11431 11.0103 6.03775 11.0266 5.95026L11.0483 5.82448C11.0701 5.72605 11.1407 5.64949 11.233 5.63308H11.2981C11.3633 5.61668 11.4285 5.61668 11.4936 5.61668L11.5153 5.60574C11.5859 5.60574 11.6565 5.5784 11.7108 5.52371V5.51278C11.7651 5.4745 11.8194 5.43622 11.8737 5.43622H11.8846C11.9389 5.42528 11.9878 5.39794 12.0312 5.35966C12.0692 5.32138 12.1235 5.29404 12.1778 5.29404L12.471 5.27763C12.5471 5.26669 12.6231 5.22295 12.6774 5.16826L12.7045 5.13545C12.7371 5.09717 12.7806 5.08623 12.8349 5.10811C12.8837 5.12998 12.9272 5.15186 12.9706 5.18467L13.0249 5.22295C13.0955 5.27763 13.1824 5.31591 13.2747 5.31591L13.3616 5.32685C13.4702 5.33779 13.5788 5.32138 13.6874 5.2831L13.7526 5.26123C13.8069 5.24482 13.8666 5.27763 13.8937 5.33232C13.9155 5.39794 13.948 5.46356 13.9861 5.51825L14.0078 5.54559C14.0566 5.61121 14.1272 5.65496 14.2087 5.6659H14.4368C14.5128 5.6659 14.5725 5.72058 14.5997 5.79167C14.6214 5.8737 14.654 5.95573 14.7083 6.01041L14.7626 6.0651C14.8169 6.13619 14.8929 6.1854 14.9798 6.21275H15.0232C15.0667 6.22915 15.0884 6.27837 15.0775 6.32212V6.34946C15.0504 6.40414 15.0504 6.45883 15.0775 6.51351L15.0884 6.54086C15.0935 6.55199 15.0986 6.56326 15.1037 6.57462C15.1314 6.63579 15.1603 6.69964 15.197 6.7596L15.235 6.84709C15.2621 6.89084 15.273 6.94553 15.273 7.00021C15.273 7.03849 15.2459 7.06583 15.2024 7.06583H15.1372C15.0449 7.05489 14.9526 7.02755 14.8657 7.00021L14.7734 6.96193L14.7734 6.96193C14.7028 6.94005 14.6322 6.91818 14.5562 6.91818H14.5019C14.4748 6.91818 14.4476 6.93459 14.4313 6.95099C14.415 6.97834 14.3879 6.98927 14.3607 6.98927H14.2684C14.1924 6.98927 14.1055 6.94553 14.0512 6.89084L14.0349 6.86897C13.9643 6.78694 13.872 6.74866 13.7634 6.73225H13.7091C13.6005 6.72678 13.5028 6.72678 13.3942 6.74866H13.3833C13.2856 6.7596 13.1933 6.80334 13.1118 6.85803L13.0738 6.8799C13.0195 6.92365 12.9489 6.92912 12.8946 6.89084C12.8294 6.85256 12.7588 6.85256 12.6937 6.85256L12.5851 6.8635C12.4873 6.87443 12.3896 6.90178 12.3027 6.94006L12.2484 6.96193C12.1941 6.98927 12.1452 7.02755 12.1127 7.08224C12.0801 7.13692 12.0258 7.16427 11.9606 7.16427H11.7977C11.7372 7.16427 11.6767 7.17369 11.6119 7.18379C11.6069 7.18457 11.6019 7.18535 11.5968 7.18614C11.5425 7.21348 11.4882 7.24082 11.4339 7.29551L11.4067 7.32832C11.3416 7.38847 11.309 7.45956 11.2873 7.53612C11.2547 7.60721 11.195 7.64549 11.1244 7.64549C11.0483 7.64549 10.9832 7.68377 10.9289 7.73846L10.7986 7.91345C10.7931 7.92439 10.7877 7.93532 10.7714 7.93532L10.6628 8.09938C10.6085 8.165 10.5596 8.24156 10.5216 8.31812L10.5053 8.34546ZM14.8657 12.3648C14.8006 12.4086 14.7191 12.3867 14.6648 12.332L14.654 12.3375L14.6214 12.2828C14.5942 12.2445 14.5942 12.1898 14.6214 12.1515C14.6485 12.1133 14.6648 12.0695 14.6757 12.0148V11.8508C14.6757 11.7523 14.654 11.6594 14.5997 11.5773C14.5454 11.5063 14.4748 11.4461 14.3933 11.4133L14.3553 11.386C14.2847 11.3641 14.263 11.2875 14.2847 11.2219C14.3119 11.1453 14.3282 11.0633 14.3282 10.9813V10.943C14.3282 10.8391 14.2901 10.7352 14.2196 10.6532L14.1924 10.6149C14.1381 10.5493 14.0675 10.4946 13.9969 10.4508L13.9698 10.4399C13.91 10.4071 13.8449 10.3852 13.7906 10.3743C13.7308 10.3524 13.6928 10.2977 13.6928 10.243V10.2157C13.6928 10.1282 13.6874 10.0462 13.6711 9.96414L13.6548 9.88758C13.6385 9.8329 13.6114 9.77821 13.5679 9.72352C13.5299 9.66884 13.4756 9.63603 13.4213 9.61415L13.3833 9.59775C13.291 9.57041 13.1987 9.55947 13.1118 9.55947H13.0792C13.0249 9.55947 12.9706 9.51572 12.9706 9.4501V9.43369C12.9706 9.37901 12.9435 9.31339 12.9163 9.26964C12.8837 9.21495 12.8403 9.17667 12.786 9.16027L12.7317 9.14933C12.6557 9.12199 12.5742 9.10558 12.4928 9.09465C12.4113 9.08371 12.3407 9.06184 12.2756 9.00715C12.2104 8.95247 12.1398 8.92512 12.0583 8.89778C11.9823 8.87591 11.9063 8.87591 11.8303 8.87591L11.6945 8.89231C11.6457 8.89778 11.5968 8.88138 11.5642 8.85403C11.5262 8.83216 11.4773 8.81575 11.4339 8.83216L11.3524 8.86497C11.2873 8.88138 11.2221 8.86497 11.1895 8.81028C11.1515 8.7556 11.1515 8.68998 11.1895 8.63529L11.2547 8.56967C11.309 8.48764 11.385 8.43296 11.4719 8.40562L11.499 8.39468C11.5696 8.3728 11.6457 8.33999 11.7 8.28531C11.7597 8.23609 11.8303 8.20875 11.8954 8.19234L12.0421 8.17047C12.1235 8.15406 12.1995 8.12672 12.2701 8.08297C12.3244 8.03923 12.4059 8.01188 12.4873 8.01188H12.6665C12.7425 8.00641 12.8186 7.98454 12.8837 7.94079L12.9055 7.92439C12.9598 7.89158 13.0141 7.88064 13.0684 7.88064C13.1281 7.88064 13.1933 7.89704 13.2476 7.92439L13.3019 7.94626C13.3942 7.99001 13.4919 8.00095 13.5897 8.00095H13.6765C13.7091 7.99001 13.7417 8.01735 13.7417 8.05563V8.08844C13.7091 8.15406 13.7091 8.23062 13.7308 8.29625C13.7471 8.33999 13.7851 8.36187 13.8231 8.35093L13.8557 8.32906L13.9263 8.2525C13.9698 8.20875 14.0349 8.19781 14.0784 8.23062C14.1381 8.2689 14.2087 8.29625 14.263 8.30718L14.3716 8.32359C14.453 8.33452 14.5345 8.38921 14.5888 8.4439C14.6594 8.50952 14.7137 8.57514 14.768 8.6517L14.9092 8.81575L15.0178 8.94153L15.0612 8.99621C15.1372 9.07277 15.2241 9.10558 15.3327 9.10558H15.3436C15.4305 9.10558 15.5065 9.17667 15.5065 9.26964V9.28605L15.4956 9.55947C15.4956 9.6579 15.5119 9.75634 15.5391 9.85477L15.5554 9.88758C15.5717 9.9532 15.626 9.99695 15.6803 10.0243C15.7291 10.0243 15.7563 10.079 15.7454 10.1337L15.7346 10.1446V10.1665C15.7128 10.2212 15.6857 10.2758 15.6477 10.3196C15.6151 10.3743 15.5934 10.429 15.5934 10.4836L15.6097 10.6477L15.626 10.8008C15.6314 10.85 15.6423 10.8883 15.664 10.943L15.6748 10.9649C15.6966 11.0196 15.7074 11.0742 15.6966 11.1289C15.6857 11.1836 15.664 11.2328 15.6314 11.2766V11.2875L15.5228 11.4297L15.4793 11.468C15.4522 11.5063 15.425 11.55 15.425 11.6047C15.425 11.6484 15.3979 11.6922 15.3545 11.7031L15.3327 11.7141C15.2784 11.7305 15.2459 11.7633 15.2241 11.807L15.2024 11.8453L15.1807 11.9L15.1481 11.9547L15.0938 12.1187V12.1297C15.0721 12.2008 15.0286 12.2554 14.9743 12.2937L14.8657 12.3648ZM11.1787 9.53213H11.1895L11.2058 9.55947C11.2384 9.57041 11.2764 9.59228 11.2927 9.62509L11.309 9.65243C11.309 9.67978 11.3416 9.67978 11.3633 9.67978C11.3649 9.67812 11.3676 9.67647 11.3705 9.67466C11.3771 9.6705 11.385 9.66553 11.385 9.6579L11.4067 9.62509C11.4285 9.57041 11.4936 9.554 11.5371 9.57041L11.7 9.67978L11.7706 9.73446C11.8411 9.78915 11.8737 9.87664 11.8629 9.96414C11.852 9.99148 11.8737 10.0188 11.9063 10.0188C11.9226 10.0243 11.9335 10.0188 11.9443 10.0024L11.9986 9.94773C12.0312 9.91492 12.0855 9.91492 12.1181 9.95867H12.1289C12.167 9.99695 12.2213 10.0407 12.2756 10.0516L12.4493 10.1063L12.5362 10.1337C12.5688 10.1501 12.5905 10.1719 12.5905 10.2048L12.6068 10.2977C12.6231 10.3743 12.6448 10.4508 12.6882 10.5055C12.7317 10.5711 12.786 10.6204 12.8403 10.6532L12.8783 10.6641C12.9543 10.7188 13.0086 10.7899 13.0195 10.8828L13.0303 10.9649C13.0412 11.0031 13.0412 11.0414 13.0412 11.0742V11.0742L13.0521 11.1836C13.0629 11.282 13.1064 11.3805 13.1824 11.4461L13.2747 11.5281C13.329 11.5719 13.3344 11.6484 13.291 11.7031C13.2476 11.7687 13.2095 11.8398 13.1824 11.9109V11.9383C13.1552 12.0312 13.1552 12.1242 13.1661 12.2117V12.2336C13.177 12.3101 13.2041 12.3867 13.2584 12.4414C13.3019 12.4906 13.3019 12.5617 13.2693 12.6164L13.215 12.6875C13.2003 12.7044 13.188 12.7205 13.1766 12.7355C13.1585 12.7592 13.1426 12.7801 13.1227 12.7968L13.0792 12.8515L12.9706 13.0156C12.938 13.0702 12.9163 13.1413 12.9055 13.196V13.5515V13.5624C12.9109 13.6499 12.8457 13.7319 12.7588 13.7483H12.7154C12.6394 13.7538 12.5688 13.7812 12.4982 13.8358C12.4439 13.8905 12.3896 13.9507 12.3353 14.0218C12.281 14.0929 12.2484 14.1749 12.2267 14.2569C12.205 14.3335 12.1398 14.3882 12.0638 14.3991L11.8683 14.4155C11.8031 14.4155 11.7271 14.4319 11.6728 14.4702L11.6294 14.4975L11.5425 14.5522L11.4067 14.6452C11.3687 14.678 11.3307 14.7163 11.3144 14.7545C11.2873 14.7874 11.2438 14.8038 11.2058 14.7874L11.1841 14.7764C11.1298 14.7436 11.0701 14.7327 11.0049 14.7327H10.9615C10.8854 14.7327 10.8148 14.7436 10.7443 14.7655L10.7008 14.7764C10.6574 14.7928 10.6248 14.8147 10.5922 14.8475C10.5651 14.8749 10.5216 14.8858 10.4945 14.8749L10.4293 14.853C10.3533 14.8202 10.2664 14.8092 10.1741 14.8202L10.0926 14.8311C10.022 14.8366 9.94602 14.8311 9.87543 14.8038H9.86457C9.79941 14.7874 9.7451 14.76 9.6908 14.7217C9.6365 14.6944 9.57134 14.6671 9.51704 14.6671L9.39757 14.6452C9.33241 14.6452 9.27268 14.6014 9.23467 14.5358C9.21838 14.503 9.22381 14.4702 9.24553 14.4483H9.2944L9.4736 14.4702L9.66908 14.5085C9.77769 14.5249 9.87543 14.4921 9.94059 14.4155L10.022 14.328L10.1035 14.246L10.1741 14.1639C10.2501 14.0929 10.2881 13.9999 10.3044 13.8905L10.3316 13.7101C10.3424 13.6499 10.375 13.6007 10.4293 13.5788L10.5922 13.4968L10.6574 13.453C10.7551 13.3984 10.8366 13.3218 10.9017 13.2343H10.9126C10.9777 13.1249 11.0266 13.0156 11.0538 12.9062L11.0972 12.7093C11.1135 12.6546 11.1515 12.6109 11.2058 12.589C11.2493 12.5671 11.2873 12.5343 11.3144 12.4796L11.3524 12.414C11.4067 12.3156 11.4393 12.2172 11.461 12.1078L11.4828 11.9601C11.4882 11.9055 11.4828 11.8508 11.4665 11.7961V11.7852C11.4502 11.7414 11.4339 11.6922 11.4339 11.6484C11.4339 11.6102 11.4502 11.5664 11.4882 11.5664L11.5425 11.5555C11.6076 11.5445 11.6511 11.4844 11.6511 11.4133L11.6348 11.1125C11.6294 11.036 11.6076 10.9594 11.5533 10.8938L11.5262 10.8664C11.4936 10.8227 11.4828 10.768 11.4936 10.7133V10.4399C11.4882 10.3415 11.4393 10.243 11.3579 10.1774H11.3361C11.271 10.1227 11.2275 10.0462 11.2167 9.95867L11.2167 9.95865C11.2058 9.87116 11.195 9.78367 11.1732 9.69618L11.1515 9.58681C11.1461 9.55947 11.1569 9.53213 11.1787 9.53213ZM10.5108 10.0516L10.5379 10.079L10.5433 10.0954L10.5651 10.161C10.5813 10.2157 10.5922 10.2868 10.5813 10.3415V10.5274L10.5922 10.604C10.5922 10.6586 10.6139 10.7133 10.6465 10.7571C10.6791 10.7954 10.6791 10.861 10.6574 10.9047L10.6031 10.9813C10.5596 11.0469 10.5325 11.1125 10.5053 11.1891C10.4782 11.2602 10.4836 11.3422 10.5216 11.3969L10.5379 11.4352C10.5813 11.5117 10.5705 11.6211 10.5053 11.6758L10.4945 11.6867C10.413 11.7578 10.3587 11.8672 10.3316 11.9765L10.299 12.1078C10.2664 12.2062 10.1958 12.2883 10.1035 12.3265L10.0383 12.3539C9.98403 12.3757 9.92973 12.4086 9.87543 12.4632C9.82656 12.5179 9.79397 12.5836 9.79397 12.6546L9.77225 12.764C9.76139 12.8734 9.66365 12.9718 9.55505 12.9828H9.33784C9.27268 12.9828 9.20209 13.0101 9.14779 13.0648L8.98488 13.2124L8.9523 13.2343C8.87628 13.2945 8.79483 13.3382 8.69708 13.371C8.61563 13.4093 8.52332 13.4202 8.42558 13.4093L8.22466 13.3984C8.15407 13.3929 8.08891 13.3984 8.02374 13.4257C7.96401 13.4476 7.89342 13.4366 7.83912 13.382C7.79025 13.3327 7.76853 13.2671 7.76853 13.196V13.1031C7.77939 13.0812 7.75224 13.0593 7.72509 13.0484L7.69794 13.0593C7.65449 13.0812 7.63277 13.1359 7.63277 13.1906V13.382C7.6382 13.4312 7.60019 13.4694 7.55675 13.4694H7.51331C7.43186 13.4148 7.34498 13.3874 7.25809 13.3601L7.01374 13.3054C6.94314 13.2781 6.88884 13.2124 6.88884 13.1413V13.114C6.88884 13.0812 6.86712 13.0593 6.83454 13.0593L6.80739 13.0702C6.76395 13.1031 6.69879 13.0976 6.65535 13.0593L6.49244 12.9062C6.42728 12.8515 6.34583 12.8242 6.26437 12.8242C6.17749 12.8242 6.11233 12.7804 6.06889 12.7039L5.98744 12.5562C5.944 12.4851 5.88969 12.4304 5.83539 12.3757C5.82198 12.3622 5.80791 12.3487 5.79367 12.3351C5.75023 12.2934 5.7052 12.2502 5.67249 12.2008L5.63991 12.157C5.6019 12.1023 5.59647 12.0476 5.62362 11.993C5.65077 11.9383 5.6562 11.8726 5.63991 11.818L5.61819 11.7086C5.59647 11.643 5.63991 11.5719 5.70507 11.5555H5.77566C5.84082 11.5555 5.90598 11.5664 5.96029 11.6102C6.01459 11.643 6.08518 11.6594 6.13948 11.643L6.44357 11.5664L6.51959 11.5336C6.54674 11.5281 6.57389 11.5336 6.59018 11.5445L6.72594 11.7086L6.72594 11.7086C6.76395 11.7469 6.80196 11.7852 6.85626 11.818C6.86036 11.8203 6.86443 11.8226 6.86846 11.8248C6.9125 11.8497 6.95313 11.8726 7.00288 11.8726L7.35584 11.9164C7.45358 11.9273 7.55675 11.8891 7.62734 11.807L7.68165 11.7359C7.71423 11.6977 7.75767 11.6812 7.81197 11.6977L7.95858 11.7359L8.01288 11.7469C8.1052 11.7687 8.19751 11.7687 8.28439 11.7578L8.40386 11.7469C8.48531 11.7359 8.56676 11.6812 8.62106 11.5992C8.67536 11.5172 8.75138 11.4625 8.83827 11.4625L9.10978 11.4352C9.20752 11.4242 9.30526 11.386 9.37042 11.3149L9.42472 11.2711C9.46817 11.2274 9.50075 11.1727 9.50075 11.118C9.51161 11.0524 9.55505 11.0141 9.60935 10.9977L9.65279 10.9867C9.73424 10.9594 9.81569 10.9102 9.87 10.8391L9.90258 10.8063C9.96231 10.7297 9.99489 10.6313 9.99489 10.5329C9.99489 10.4563 10.0546 10.3907 10.1306 10.3907H10.1415H10.1958C10.261 10.4016 10.3261 10.3524 10.3424 10.2813V10.2704C10.3587 10.1993 10.3913 10.1282 10.4293 10.0626C10.4565 10.0352 10.4836 10.0298 10.5108 10.0516ZM9.76139 9.64697V9.66337L9.77225 9.6579C9.76139 9.72353 9.73424 9.77821 9.67994 9.8329L9.59306 9.92039C9.55505 9.9532 9.5279 9.99695 9.51161 10.0516C9.49532 10.1009 9.45731 10.1391 9.41386 10.1391L9.30526 10.161C9.2401 10.1719 9.1858 10.2157 9.15865 10.2704C9.1315 10.3251 9.07176 10.3797 9.0066 10.3797H8.76225C8.69708 10.3852 8.63192 10.4071 8.58848 10.4618L8.56133 10.4891L8.46902 10.5766H8.45816C8.43101 10.6204 8.37671 10.6313 8.3224 10.6313L8.06719 10.6149C7.99659 10.6149 7.926 10.6368 7.8717 10.6805C7.8174 10.7188 7.74681 10.7297 7.68165 10.7024H7.66535C7.64547 10.694 7.62507 10.6862 7.60479 10.6784C7.55862 10.6607 7.51303 10.6432 7.4753 10.6204C7.41557 10.5821 7.34498 10.5657 7.29067 10.5657H7.20922C7.13863 10.5657 7.06804 10.5711 7.00288 10.5875C6.93771 10.604 6.87255 10.5766 6.82911 10.5219L6.80739 10.5001C6.75309 10.4235 6.68793 10.3524 6.62276 10.2977C6.5576 10.2321 6.48158 10.1829 6.3947 10.1555L6.2861 10.1227C6.27524 10.1118 6.25894 10.1118 6.25894 10.1118L6.17206 10.0844C6.11776 10.068 6.06346 10.0134 6.06346 9.94773L6.00916 9.70165C5.9983 9.65243 5.97115 9.60869 5.93314 9.57587L5.91141 9.554C5.88969 9.54306 5.86254 9.52119 5.84625 9.49932L5.79195 9.45557C5.75182 9.4202 5.69314 9.38484 5.64162 9.35379C5.63738 9.35123 5.63318 9.3487 5.62905 9.3462L5.50958 9.29151C5.47157 9.27511 5.44442 9.23683 5.44442 9.19308C5.44442 9.14386 5.44442 9.09465 5.45528 9.0509L5.50958 8.74466V8.73373L5.52044 8.67904C5.5313 8.64076 5.55302 8.60795 5.58561 8.59701L5.63991 8.56967C5.6562 8.56967 5.67249 8.53686 5.6562 8.51499C5.65077 8.49858 5.64534 8.48764 5.62905 8.48764L5.60733 8.47671L5.37926 8.37827C5.3141 8.34546 5.28695 8.2689 5.3141 8.19781L5.32496 8.15406C5.36297 8.04469 5.37926 7.93532 5.37926 7.82595L5.39012 7.5744C5.39012 7.50878 5.42813 7.44316 5.48243 7.39941C5.53673 7.36113 5.58017 7.30098 5.60733 7.23536L5.61819 7.20801C5.65077 7.13145 5.67249 7.04943 5.68335 6.9674C5.69421 6.88537 5.72679 6.80334 5.78109 6.74866L5.83539 6.69397L5.944 6.5846L5.96572 6.55726C6.01459 6.49711 6.05803 6.43695 6.08518 6.3604C6.11776 6.29477 6.17749 6.25103 6.24808 6.25103H6.26437C6.31868 6.25103 6.37298 6.29477 6.37298 6.3604V6.3768V6.39321C6.35126 6.50804 6.35126 6.62288 6.36212 6.74319C6.36755 6.85803 6.42185 6.96193 6.50873 7.03302L6.58475 7.10411C6.63363 7.15333 6.66078 7.21895 6.66078 7.28457C6.66078 7.36113 6.65535 7.43222 6.63363 7.50331L6.62276 7.53612C6.60104 7.62909 6.60647 7.72205 6.63363 7.80955L6.64449 7.84236C6.6825 7.94626 6.75309 8.03376 6.83454 8.09938L6.86169 8.11578C6.93228 8.165 7.00288 8.20875 7.0789 8.24156C7.14406 8.2689 7.19293 8.33999 7.20922 8.41655L7.23094 8.5642C7.23094 8.71185 7.32325 8.82122 7.44815 8.87591L7.51331 8.90325C7.60019 8.947 7.69251 8.947 7.78482 8.947C7.86627 8.93059 7.94772 8.97434 7.98573 9.05637L8.01288 9.11105C8.07262 9.23136 8.17036 9.31886 8.30068 9.35713L8.54504 9.43916L8.65364 9.47197L8.78397 9.50479C8.90343 9.5376 9.02289 9.55947 9.14779 9.55947H9.39214C9.43559 9.57041 9.48989 9.57041 9.54419 9.55947H9.68537C9.72881 9.55947 9.76139 9.59228 9.76139 9.64697Z" fill="black"/>
</svg>
