<svg width="21" height="17" viewBox="0 0 21 17" fill="none" xmlns="http://www.w3.org/2000/svg">
<path fill-rule="evenodd" clip-rule="evenodd" d="M15.7209 0H5.26249C2.36479 0 0 1.91587 0 4.26349V12.75C0 15.0841 2.36479 17 5.26249 17H15.7375C18.6352 17 21 15.0841 21 12.7365V4.26349C20.9833 1.91587 18.6186 0 15.7209 0ZM4.42102 6.2991V10.7531L7.60639 8.68517L4.42102 6.2991ZM16.5791 6.2991V10.7531L13.3937 8.68517L16.5791 6.2991ZM10.5 10.8527L8.38319 9.26706L4.42102 11.8393V12.75H16.5789V11.8393L12.6167 9.26706L10.5 10.8527ZM10.5 9.71429L4.42104 5.16072V4.25H16.5789V5.16072L10.5 9.71429Z" fill="black"/>
</svg>
