<svg width="21" height="18" viewBox="0 0 21 18" fill="none" xmlns="http://www.w3.org/2000/svg">
<path fill-rule="evenodd" clip-rule="evenodd" d="M5.26249 0H15.7209C18.6186 0 20.9833 2.02857 21 4.51429V13.4857C21 15.9714 18.6352 18 15.7375 18H5.26249C2.36479 18 0 15.9714 0 13.5V4.51429C0 2.02857 2.36479 0 5.26249 0ZM13.7751 14.63C13.7751 14.63 13.8376 14.1581 13.3997 14.1581C12.993 14.1581 12.8991 13.9916 12.8991 13.8251L12.9304 11.8822C12.9304 11.2161 12.6802 10.772 12.3673 10.55C14.1505 10.3834 16.0274 9.77282 16.0274 7.05282C16.0274 6.27567 15.7146 5.63731 15.2141 5.13771C15.3079 4.97118 15.5582 4.24955 15.1202 3.27812C15.1202 3.27812 14.4633 3.08383 12.9304 3.99975C11.6166 3.66669 10.2401 3.66669 8.92625 3.99975C7.3934 3.08383 6.73646 3.27812 6.73646 3.27812C6.2985 4.24955 6.54876 4.97118 6.64261 5.13771C6.14209 5.63731 5.82926 6.27567 5.82926 7.05282C5.82926 9.77282 7.67494 10.3834 9.45805 10.55C9.23907 10.7443 9.02009 11.0496 8.95753 11.5214C8.48829 11.6879 7.33083 11.9932 6.64261 10.9108C6.64261 10.9108 6.20466 10.2447 5.39131 10.1891C5.39131 10.1891 4.60924 10.1891 5.36002 10.6332C5.36002 10.6332 5.86055 10.8275 6.23594 11.6602C6.23594 11.6602 6.70518 12.8814 8.92625 12.4373L8.95753 13.8251C8.95753 13.9916 8.86368 14.1581 8.45701 14.1581C8.01905 14.1581 8.08162 14.63 8.08162 14.63H13.7751Z" fill="black"/>
</svg>
