<svg width="21" height="18" viewBox="0 0 21 18" fill="none" xmlns="http://www.w3.org/2000/svg">
<path d="M15.7209 0H5.26249C2.36479 0 0 2.02857 0 4.51429V13.5C0 15.9714 2.36479 18 5.26249 18H15.7375C18.6352 18 21 15.9714 21 13.4857V4.51429C20.9833 2.02857 18.6186 0 15.7209 0ZM6.99445 14.5714H3.99683V7.14286H6.99445V14.5714ZM5.47898 6C4.62966 6 3.94687 5.41429 3.94687 4.68571C3.94687 3.95714 4.62966 3.37143 5.47898 3.37143C6.32831 3.37143 7.0111 3.95714 7.0111 4.68571C6.99445 5.41429 6.31166 6 5.47898 6ZM17.0032 14.5714H16.9865H14.4885V10.9714C14.4885 10.1 14.3553 8.98571 12.973 8.98571C11.5575 8.98571 11.3243 9.92857 11.3243 10.9143V14.5714H8.82633V7.14286H11.1578V8.14286H11.2244C11.5908 7.57143 12.4401 7.12857 13.7724 7.12857C16.5202 7.12857 17.0032 8.48571 17.0032 10.5V14.5714Z" fill="black"/>
</svg>
