<svg width="21" height="18" viewBox="0 0 21 18" fill="none" xmlns="http://www.w3.org/2000/svg">
<path fill-rule="evenodd" clip-rule="evenodd" d="M15.7209 0H5.26249C2.36479 0 0 2.02857 0 4.51429V13.5C0 15.9714 2.36479 18 5.26249 18H15.7375C18.6352 18 21 15.9714 21 13.4857V4.51429C20.9833 2.02857 18.6186 0 15.7209 0ZM10.2894 3C6.8214 3 4 5.14234 4 7.77558C4 8.86174 4.98601 10.4501 6.93058 12.4964C8.33644 13.9759 9.71961 15.1448 9.77779 15.1938L10.2895 15.625L10.8011 15.1938C10.8593 15.1448 12.2425 13.9759 13.6483 12.4964C15.5929 10.4501 16.5789 8.86177 16.5789 7.77558C16.5789 5.14234 13.7574 3 10.2894 3ZM10.2894 14.0501C8.55692 12.5122 5.37743 9.36202 5.37743 7.77558C5.37743 5.71904 7.58092 4.04589 10.2894 4.04589C12.9979 4.04589 15.2014 5.71904 15.2014 7.77558C15.2014 9.36202 12.0219 12.5122 10.2894 14.0501ZM12.5712 7.77568C12.5712 8.73255 11.5496 9.50824 10.2894 9.50824C9.02925 9.50824 8.00767 8.73255 8.00767 7.77568C8.00767 6.81882 9.02925 6.04313 10.2894 6.04313C11.5496 6.04313 12.5712 6.81882 12.5712 7.77568Z" fill="black"/>
</svg>
