<svg width="21" height="18" viewBox="0 0 21 18" fill="none" xmlns="http://www.w3.org/2000/svg">
<path fill-rule="evenodd" clip-rule="evenodd" d="M5.26249 0H15.7209C18.6186 0 20.9833 2.02857 21 4.51429V13.4857C21 15.9714 18.6352 18 15.7375 18H5.26249C2.36479 18 0 15.9714 0 13.5V4.51429C0 2.02857 2.36479 0 5.26249 0ZM15.0562 10.2191C15.1379 10.2566 16.9953 11.1152 17.5302 11.9069C17.8016 12.3085 17.7084 12.7945 17.2976 13.1159L16.6219 13.6451C15.7913 14.2952 14.8679 14.625 13.8767 14.625C12.5294 14.625 11.0703 14.0172 9.53976 12.8187L5.62288 9.75143C4.41358 8.80466 3.67149 7.88752 3.41685 7.02565C3.11159 5.99148 3.49862 5.04263 4.56781 4.20558L5.24384 3.6764C5.49209 3.48221 5.82238 3.375 6.17345 3.375C6.38654 3.375 6.5991 3.4163 6.78769 3.49452C7.79827 3.91315 8.89516 5.36782 8.94124 5.42956C9.13675 5.69801 9.19775 5.97355 9.11491 6.20779C9.05258 6.38383 8.91035 6.52734 8.70311 6.62391C8.37815 6.83688 7.99831 7.10094 7.93865 7.1654C7.5122 7.65828 7.56228 8.05104 8.10699 8.4776L11.1665 10.8736C11.7146 11.3029 12.2101 11.341 12.8429 11.0048C12.9247 10.9587 13.2617 10.6613 13.5334 10.4068C13.7052 10.1807 13.9888 10.0564 14.3354 10.0564C14.5685 10.0564 14.8175 10.1127 15.0562 10.2191Z" fill="black"/>
</svg>
